<svg viewBox="0 0 1112.2000732421875 400" xmlns="http://www.w3.org/2000/svg"><g><g><g><g><g><line x1="40" y1="378" x2="35" y2="378" style="visibility: inherit;" fill="rgb(0, 0, 0)" stroke="rgb(204, 204, 204)" stroke-width="1px"></line><line x1="40" y1="330.75" x2="35" y2="330.75" style="visibility: inherit;" fill="rgb(0, 0, 0)" stroke="rgb(204, 204, 204)" stroke-width="1px"></line><line x1="40" y1="283.5" x2="35" y2="283.5" style="visibility: inherit;" fill="rgb(0, 0, 0)" stroke="rgb(204, 204, 204)" stroke-width="1px"></line><line x1="40" y1="236.25" x2="35" y2="236.25" style="visibility: inherit;" fill="rgb(0, 0, 0)" stroke="rgb(204, 204, 204)" stroke-width="1px"></line><line x1="40" y1="189" x2="35" y2="189" style="visibility: inherit;" fill="rgb(0, 0, 0)" stroke="rgb(204, 204, 204)" stroke-width="1px"></line><line x1="40" y1="141.75" x2="35" y2="141.75" style="visibility: inherit;" fill="rgb(0, 0, 0)" stroke="rgb(204, 204, 204)" stroke-width="1px"></line><line x1="40" y1="94.5" x2="35" y2="94.5" style="visibility: inherit;" fill="rgb(0, 0, 0)" stroke="rgb(204, 204, 204)" stroke-width="1px"></line><line x1="40" y1="47.25" x2="35" y2="47.25" style="visibility: inherit;" fill="rgb(0, 0, 0)" stroke="rgb(204, 204, 204)" stroke-width="1px"></line><line x1="40" y1="0" x2="35" y2="0" style="visibility: inherit;" fill="rgb(0, 0, 0)" stroke="rgb(204, 204, 204)" stroke-width="1px"></line></g><g transform="translate(30, 0)"><text x="0" y="378" dx="0em" dy="0.3em" style="text-anchor: end; visibility: hidden; font-family: &quot;Helvetica Neue&quot;, sans-serif; font-size: 12px; font-weight: 200;" fill="rgb(50, 49, 63)" stroke="none" stroke-width="1px">-10</text><text x="0" y="330.75" dx="0em" dy="0.3em" style="text-anchor: end; visibility: inherit; font-family: &quot;Helvetica Neue&quot;, sans-serif; font-size: 12px; font-weight: 200;" fill="rgb(50, 49, 63)" stroke="none" stroke-width="1px">-5</text><text x="0" y="283.5" dx="0em" dy="0.3em" style="text-anchor: end; visibility: inherit; font-family: &quot;Helvetica Neue&quot;, sans-serif; font-size: 12px; font-weight: 200;" fill="rgb(50, 49, 63)" stroke="none" stroke-width="1px">0</text><text x="0" y="236.25" dx="0em" dy="0.3em" style="text-anchor: end; visibility: inherit; font-family: &quot;Helvetica Neue&quot;, sans-serif; font-size: 12px; font-weight: 200;" fill="rgb(50, 49, 63)" stroke="none" stroke-width="1px">5</text><text x="0" y="189" dx="0em" dy="0.3em" style="text-anchor: end; visibility: inherit; font-family: &quot;Helvetica Neue&quot;, sans-serif; font-size: 12px; font-weight: 200;" fill="rgb(50, 49, 63)" stroke="none" stroke-width="1px">10</text><text x="0" y="141.75" dx="0em" dy="0.3em" style="text-anchor: end; visibility: inherit; font-family: &quot;Helvetica Neue&quot;, sans-serif; font-size: 12px; font-weight: 200;" fill="rgb(50, 49, 63)" stroke="none" stroke-width="1px">15</text><text x="0" y="94.5" dx="0em" dy="0.3em" style="text-anchor: end; visibility: inherit; font-family: &quot;Helvetica Neue&quot;, sans-serif; font-size: 12px; font-weight: 200;" fill="rgb(50, 49, 63)" stroke="none" stroke-width="1px">20</text><text x="0" y="47.25" dx="0em" dy="0.3em" style="text-anchor: end; visibility: inherit; font-family: &quot;Helvetica Neue&quot;, sans-serif; font-size: 12px; font-weight: 200;" fill="rgb(50, 49, 63)" stroke="none" stroke-width="1px">25</text><text x="0" y="0" dx="0em" dy="0.3em" style="text-anchor: end; visibility: hidden; font-family: &quot;Helvetica Neue&quot;, sans-serif; font-size: 12px; font-weight: 200;" fill="rgb(50, 49, 63)" stroke="none" stroke-width="1px">30</text></g><line x1="40" y1="0" x2="40" y2="378" fill="rgb(0, 0, 0)" stroke="rgb(204, 204, 204)" stroke-width="1px"></line></g></g><g transform="translate(40, 0)" clip-path="url(#clip_0)"><clipPath id="clip_0"><rect width="1072" height="378"></rect></clipPath><g><g><g><line x1="0" y1="0" x2="0" y2="378" fill="rgb(0, 0, 0)" stroke="rgb(60, 60, 60)" stroke-width="1px" opacity="0.25"></line><line x1="89.35" y1="0" x2="89.35" y2="378" fill="rgb(0, 0, 0)" stroke="rgb(60, 60, 60)" stroke-width="1px" opacity="0.25"></line><line x1="178.7" y1="0" x2="178.7" y2="378" fill="rgb(0, 0, 0)" stroke="rgb(60, 60, 60)" stroke-width="1px" opacity="0.25"></line><line x1="268.05" y1="0" x2="268.05" y2="378" fill="rgb(0, 0, 0)" stroke="rgb(60, 60, 60)" stroke-width="1px" opacity="0.25"></line><line x1="357.4" y1="0" x2="357.4" y2="378" fill="rgb(0, 0, 0)" stroke="rgb(60, 60, 60)" stroke-width="1px" opacity="0.25"></line><line x1="446.75000000000006" y1="0" x2="446.75000000000006" y2="378" fill="rgb(0, 0, 0)" stroke="rgb(60, 60, 60)" stroke-width="1px" opacity="0.25"></line><line x1="536.1" y1="0" x2="536.1" y2="378" fill="rgb(0, 0, 0)" stroke="rgb(60, 60, 60)" stroke-width="1px" opacity="0.25"></line><line x1="625.45" y1="0" x2="625.45" y2="378" fill="rgb(0, 0, 0)" stroke="rgb(60, 60, 60)" stroke-width="1px" opacity="0.25"></line><line x1="714.8" y1="0" x2="714.8" y2="378" fill="rgb(0, 0, 0)" stroke="rgb(60, 60, 60)" stroke-width="1px" opacity="0.25"></line><line x1="804.1500000000001" y1="0" x2="804.1500000000001" y2="378" fill="rgb(0, 0, 0)" stroke="rgb(60, 60, 60)" stroke-width="1px" opacity="0.25"></line><line x1="893.5000000000001" y1="0" x2="893.5000000000001" y2="378" fill="rgb(0, 0, 0)" stroke="rgb(60, 60, 60)" stroke-width="1px" opacity="0.25"></line><line x1="982.85" y1="0" x2="982.85" y2="378" fill="rgb(0, 0, 0)" stroke="rgb(60, 60, 60)" stroke-width="1px" opacity="0.25"></line><line x1="1072.2" y1="0" x2="1072.2" y2="378" fill="rgb(0, 0, 0)" stroke="rgb(60, 60, 60)" stroke-width="1px" opacity="0.25"></line></g><g><line x1="0" y1="378" x2="1072.2" y2="378" fill="rgb(0, 0, 0)" stroke="rgb(60, 60, 60)" stroke-width="1px" opacity="0.25"></line><line x1="0" y1="330.75" x2="1072.2" y2="330.75" fill="rgb(0, 0, 0)" stroke="rgb(60, 60, 60)" stroke-width="1px" opacity="0.25"></line><line x1="0" y1="283.5" x2="1072.2" y2="283.5" fill="rgb(0, 0, 0)" stroke="rgb(60, 60, 60)" stroke-width="1px" opacity="0.25"></line><line x1="0" y1="236.25" x2="1072.2" y2="236.25" fill="rgb(0, 0, 0)" stroke="rgb(60, 60, 60)" stroke-width="1px" opacity="0.25"></line><line x1="0" y1="189" x2="1072.2" y2="189" fill="rgb(0, 0, 0)" stroke="rgb(60, 60, 60)" stroke-width="1px" opacity="0.25"></line><line x1="0" y1="141.75" x2="1072.2" y2="141.75" fill="rgb(0, 0, 0)" stroke="rgb(60, 60, 60)" stroke-width="1px" opacity="0.25"></line><line x1="0" y1="94.5" x2="1072.2" y2="94.5" fill="rgb(0, 0, 0)" stroke="rgb(60, 60, 60)" stroke-width="1px" opacity="0.25"></line><line x1="0" y1="47.25" x2="1072.2" y2="47.25" fill="rgb(0, 0, 0)" stroke="rgb(60, 60, 60)" stroke-width="1px" opacity="0.25"></line><line x1="0" y1="0" x2="1072.2" y2="0" fill="rgb(0, 0, 0)" stroke="rgb(60, 60, 60)" stroke-width="1px" opacity="0.25"></line></g></g></g><g><g><line x1="0" y1="283.5" x2="1072.2" y2="283.5" fill="rgb(0, 0, 0)" stroke="rgb(153, 153, 153)" stroke-width="1.5px"></line></g></g><g><g><line x1="89.35" y1="0" x2="89.35" y2="378" fill="rgb(0, 0, 0)" stroke="rgb(153, 153, 153)" stroke-width="1.5px"></line></g></g><g><g><g><g><g><path stroke="rgb(0, 119, 187)" stroke-width="2px" d="M90.2479675,295.56774641275405L91.14593500000001,292.81232797801493L92.0439025,294.130625035626L92.94187000000001,293.87293973085355L93.83983750000002,292.68066299431723L94.737805,291.1826943707026L95.6357725,290.47650604662215L96.53374000000001,289.7410312553059L97.4317075,289.218380293762L98.32967500000001,288.67640833645333L99.2276425,289.5299370296857L100.12561000000001,288.18082812311064L101.0235775,287.66801770680206L101.921545,286.67357737891024L102.8195125,286.96704749543693L103.71748000000001,286.69332282204925L104.6154475,286.467392594692L105.51341500000001,286.12597671319645L106.41138250000002,285.6616528684315L107.30935,285.2222768359851L108.2073175,285.3121504653591L109.10528500000001,286.16286001123956L110.0032525,286.53558127703286L110.90122000000001,285.9591110377029L111.7991875,285.84833183388764L112.69715500000001,285.5585198249677L113.5951225,285.3347829172941L114.49309,285.6729287002255L115.3910575,286.7202263806645L116.28902500000001,287.68405038220806L117.1869925,287.67544289960944L118.08496000000001,287.6752147000813L118.98292750000002,287.3896308101355L119.880895,287.48395968889423L120.7788625,287.2111748812495L121.67683000000001,287.5780268770125L122.5747975,287.67551053564387L123.47276500000001,287.58660963052364L124.37073250000002,286.98632087229794L125.2687,287.377751384681L126.1666675,287.1290919284093L127.064635,286.68867723584594L127.9626025,287.21946705620843L128.86057,287.35935475762665L129.7585375,288.7909896767052L130.656505,289.5657565007851L131.5544725,289.64467100980517L132.45244,289.58092335304747L133.35040750000002,289.12729668058796L134.248375,288.8242294514097L135.1463425,288.10962883094584L136.04431,289.1966515724084L136.94227750000002,289.82224136607135L137.840245,289.893454307122L138.7382125,290.0529960206519L139.63618000000002,290.3654157441496L140.53414750000002,290.4048183127755L141.43211499999998,291.4747173202567L142.3300825,291.2974134313096L143.22805,291.99704855984635L144.1260175,292.06191910237874L145.023985,291.56422577110175L145.9219525,290.5550362731591L146.81992,290.20582337000724L147.71788750000002,290.38471055306724L148.615855,289.8716558136969L149.5138225,289.5846506860084L150.41179000000002,288.537826468238L151.30975750000002,288.5576125002382L152.207725,289.32078347298636L153.10569250000003,289.0761610786411L154.00366,288.2947122045173L154.9016275,287.3633948994218L155.799595,287.8275597591154L156.6975625,287.80562087687395L157.59553,288.274964564562L158.49349750000002,287.71736433510625L159.391465,286.83288070654595L160.2894325,287.34254378089975L161.18740000000003,287.2190690615587L162.08536750000002,287.9129842058603L162.983335,287.09273647910703L163.8813025,287.31997167154157L164.77927000000003,287.3129044808155L165.6772375,287.4800256762409L166.57520499999998,287.6350276384781L167.4731725,287.7834986307981L168.37114,289.44243346418057L169.2691075,290.14757058759943L170.167075,289.68129482858666L171.0650425,290.64959216259484L171.96301,292.12333740288193L172.86097750000002,291.68128151250005L173.758945,291.46631563787537L174.6569125,292.4594978985196L175.55488000000003,289.98418634953225L176.45284750000002,290.5557898163854L177.350815,291.26292653941243L178.2487825,290.35365725911856L179.14675,290.4521403045235L180.0447175,290.1177536368443L180.942685,291.3077619494618L181.8406525,291.7225549854569L182.73862,291.7995549726735L183.63658750000002,289.4940742186756L184.534555,288.69318912155535L185.4325225,287.1682028347763L186.33049000000003,289.82070089186453L187.22845750000002,290.2373870341512L188.126425,291.04546647300367L189.02439250000003,291.11594549183206L189.92236000000003,290.9126735149924L190.8203275,292.5362257825798L191.718295,293.45887378117004L192.6162625,292.2977066620947L193.51423,290.397650871545L194.4121975,289.41445649156117L195.310165,287.2746080020122L196.2081325,284.24986877154834L197.1061,284.39608319545044L198.00406750000002,286.31095711703864L198.902035,280.5717599377209L199.8000025,276.15391586185353L200.69797000000003,271.57938636827714L201.59593750000002,273.18242699852306L202.49390499999998,270.5626014975748L203.3918725,272.7256679096762L204.28984,268.8745676929891L205.1878075,266.03049132069975L206.085775,266.5501044296507L206.9837425,257.7027158421883L207.88171,256.22003867487956L208.77967750000002,256.2618428696064L209.677645,253.98532658011635L210.5756125,254.6781977756097L211.47358000000003,250.92594888554186L212.37154750000002,250.32821414268943L213.269515,245.52826742010836L214.16748250000003,243.57787294926257L215.06545,241.52435269309683L215.9634175,239.44735825978597L216.861385,237.8495304943949L217.7593525,236.47366321101424L218.65732,236.8946407605381L219.55528750000002,235.8470751610733L220.453255,233.11133435466581L221.3512225,233.67552410681003L222.24919000000003,233.89867111936374L223.14715750000002,235.26954268849028L224.045125,232.6429042914401L224.9430925,234.05981104683005L225.84106000000003,232.9521274448325L226.73902750000002,234.98045124061028L227.63699499999998,238.80221373039183L228.5349625,234.81713211216683L229.43293,235.7155193255596L230.3308975,235.30386480699005L231.228865,234.16494081981992L232.1268325,230.7209949618023L233.0248,233.2315887360129L233.92276750000002,232.2981472562435L234.820735,236.00792402590773L235.7187025,234.4745166680452L236.61667000000003,231.42574744393323L237.51463750000002,233.60236063615397L238.412605,233.25785975945723L239.31057250000003,233.85991342459306L240.20854,233.91647146061408L241.1065075,234.87040133726876L242.004475,233.78764294347985L242.9024425,234.7921230360812L243.80041,234.18971661924886L244.69837750000002,235.09732836246147L245.596345,237.1984125118228L246.4943125,238.9606336125352L247.39228000000003,233.0204209572965L248.29024750000002,233.54028551633314L249.188215,236.67940442844355L250.08618250000004,238.0491569589307L250.98415000000003,244.67722924556173L251.8821175,241.35360020801096L252.78008499999999,243.58567462527492L253.6780525,242.80781248540669L254.57602,240.92775720382522L255.4739875,243.92958034296666L256.371955,242.41080461994673L257.2699225,243.2989028211901L258.16789,244.0271688053186L259.0658575,245.52882684303725L259.963825,245.57089624987765L260.8617925,246.00310784329352L261.75976,244.3694551447978L262.6577275,243.01187708695335L263.555695,238.7755517841943L264.4536625,238.85589341176097L265.35163,233.60985081396535L266.2495975,233.82837570350995L267.14756500000004,234.14092850718205L268.04553250000004,231.59305784728767L268.94350000000003,225.45427317640497L269.8414675,223.98752664106144L270.739435,222.75716315569122L271.6374025,224.37065175105445L272.53537,223.55855861607643L273.4333375,227.35112473252178L274.33130500000004,230.5880914154272L275.22927250000004,229.83294248124923L276.12724000000003,229.39514840238067L277.0252075,229.19907981866817L277.923175,232.02628620715316L278.8211425,229.21942429424422L279.71911000000006,229.27627637768666L280.61707750000005,227.31047786541686L281.51504500000004,232.20240163380228L282.4130125,233.6270928968932L283.31098,234.6553043357488L284.20894749999997,236.4201797335908L285.106915,239.6720441937101L286.0048825,235.72617519375896L286.90285,238.92339951894456L287.8008175,240.1224891368689L288.698785,244.34651180538668L289.5967525,244.6543510654222L290.49472000000003,244.32274571249096L291.3926875,243.6102461210029L292.290655,250.44841708828102L293.1886225,252.52434217205916L294.08659,253.87087201016166L294.9845575,251.62968207945045L295.88252500000004,248.95286003867477L296.78049250000004,247.78104182179524L297.67846000000003,249.10947937962018L298.5764275,245.799620385143L299.474395,246.52198168847784L300.3723625,246.93717263153255L301.27033,247.99374944298316L302.16829750000005,247.35815542005577L303.06626500000004,248.8511163303302L303.96423250000004,248.86866276336085L304.86220000000003,251.79727017221745L305.7601675,254.2063855690789L306.65813499999996,254.50618454559896L307.5561025,256.0232457832039L308.45407,259.1011234224272L309.3520375,263.66017853025056L310.250005,264.4914311957634L311.1479725,268.6310216755491L312.04594,265.4210999417958L312.9439075,268.23406048982594L313.841875,269.48855200445064L314.7398425,269.4142006304694L315.63781,271.86063938905454L316.5357775,271.6751473607195L317.433745,274.4253974322734L318.33171250000004,272.8566770592736L319.22968000000003,275.87548616543666L320.1276475,277.68321933549845L321.025615,277.74610010168715L321.9235825,276.61406772797716L322.82155,277.1553654392792L323.71951750000005,277.35426815730193L324.61748500000004,277.88032544062025L325.51545250000004,287.40641106927785L326.41342000000003,285.0274082920106L327.3113875,283.956377327931L328.209355,283.4081644494272L329.1073225,284.75384298415474L330.00529000000006,286.07518694640396L330.90325750000005,285.7970934137499L331.801225,284.38716432033345L332.6991925,286.63223595880163L333.59716,290.20910366267117L334.49512749999997,295.4358627755654L335.393095,293.7426553881536L336.2910625,293.3669329076107L337.18903,292.70578075342144L338.0869975,292.47905743116354L338.984965,294.5726408051985L339.8829325,292.73506816139115L340.78090000000003,295.96076499072944L341.6788675,295.4705219387868L342.576835,294.38020347057653L343.4748025,299.0836201310068L344.37277,300.35922794341326L345.2707375,300.2284257769527L346.16870500000005,304.9912379884674L347.06667250000004,301.1039746512138L347.96464000000003,301.2779128328294L348.8626075,298.4816441843176L349.760575,296.509282692215L350.6585425,299.1023387447525L351.55651000000006,298.0770087767068L352.45447750000005,299.32666638520743L353.35244500000005,297.49470344982456L354.25041250000004,298.66020960491426L355.14838000000003,299.48274337277036L356.04634749999997,297.8443456351775L356.94431499999996,299.8143486404433L357.8422825,297.8326636428844L358.74025,299.93980651578994L359.6382175,298.3468248904283L360.536185,298.15547247652495L361.4341525,298.92970473507467L362.33212,296.7645207974468L363.2300875,296.4170924773339L364.128055,295.42444589658766L365.0260225,298.5621483033831L365.92399,299.9267026667543L366.8219575,297.6366175518233L367.719925,297.4753410089651L368.61789250000004,296.05839649288964L369.51586000000003,297.1934178650308L370.4138275,298.9412654828969L371.311795,297.9970284054234L372.2097625,300.51492046193715L373.10773,298.8532559931392L374.00569750000005,297.8594407796951L374.90366500000005,295.64056101501717L375.80163250000004,301.0114259104787L376.69960000000003,301.4420393880891L377.5975675,299.2019455811729L378.495535,298.4238302581588L379.39350250000007,296.2491605326994L380.29147000000006,297.2777389824759L381.1894375,294.0517178657946L382.087405,294.89100547935936L382.9853725,294.70165163323384L383.88334,294.1340926156052L384.78130749999997,294.16743190293374L385.679275,293.00235814932876L386.5772425,295.1796575537037L387.47521,297.9772735111484L388.3731775,303.5716386216934L389.271145,301.7531805398508L390.1691125,302.1007501604115L391.06708000000003,302.83180971638006L391.9650475,303.57791981375726L392.863015,300.9333936164897L393.7609825,298.8231634320912L394.65895,300.7614555145976L395.5569175,298.5863844403169L396.45488500000005,297.29999169834787L397.35285250000004,295.6048102907605L398.25082000000003,296.22562849102553L399.1487875,297.63504700802275L400.046755,294.9379001528919L400.9447225,292.8176112587721L401.84269000000006,290.81106536315144L402.74065750000005,289.6846866709094L403.63862500000005,291.7900576934895L404.53659250000004,290.3917081903462L405.43456,289.13334842210867L406.33252749999997,289.24113227932344L407.230495,289.54580143915564L408.1284625,289.55890318395257L409.02643,288.0626589321916L409.9243975,288.7620727134804L410.822365,288.24272481068454L411.7203325,289.23165893923823L412.61830000000003,289.6146037167039L413.5162675,287.665299884536L414.414235,287.0670727075105L415.3122025,287.08317119963687L416.21017,286.469230303319L417.1081375,286.12395048645277L418.006105,287.03872377381435L418.90407250000004,290.69095472658245L419.80204000000003,289.30450044290876L420.7000075,288.3639774229211L421.597975,287.2458180597291L422.4959425,284.2924083952797L423.39391,283.8534120035921L424.29187750000006,284.50984606128964L425.18984500000005,283.9227279543939L426.08781250000004,283.1724280425956L426.98578000000003,284.7544636632244L427.8837475,285.45502661071146L428.781715,288.85150909345884L429.67968250000007,288.40001276162496L430.57765,286.5584451379556L431.4756175,288.69878666299013L432.373585,288.5732124868824L433.2715525,291.5254735663568L434.16952,290.66128953159136L435.0674875,292.54822137880547L435.965455,295.9201344818133L436.8634225,297.7940019202438L437.76139,295.6800090432927L438.6593575,293.6601580049705L439.557325,292.6891879430304L440.45529250000004,292.53322930263596L441.35326000000003,293.83632193984283L442.2512275,292.90794391120824L443.149195,295.9676962287057L444.0471625,293.05847707307964L444.94513,293.5730291622212L445.8430975,294.6194778027002L446.74106500000005,293.0361601878694L447.63903250000004,293.0771468809836L448.53700000000003,295.6781165521616L449.4349675,295.7065517494102L450.332935,295.4120011897103L451.2309025,293.5169389561785L452.12887000000006,292.6823143930016L453.02683750000006,291.25479563302025L453.92480500000005,290.03741349409995L454.8227725,290.78213817938945L455.72074,289.53555822443786L456.61870749999997,287.9298074020193L457.516675,288.64408044443496L458.4146425,288.5977648884135L459.31261,289.27586314917227L460.2105775,289.81152739120023L461.108545,289.9684076491395L462.0065125,288.9836163489242L462.90448000000004,290.06565797434007L463.8024475,290.8473940190137L464.700415,288.65319223405606L465.5983825,289.1211868816748L466.49635,287.91056239796757L467.3943175,288.8130375591364L468.29228500000005,289.9464341972229L469.19025250000004,289.54500108154275L470.08822000000004,289.5933922023905L470.9861875,292.13118713031866L471.884155,292.8929376898659L472.7821225,292.61814529108625L473.68009,293.7266296872109L474.57805750000006,292.97866429278133L475.47602500000005,291.30129113094114L476.37399250000004,293.53152132905404L477.27196000000004,293.0576308957885L478.16992750000003,293.18803095755186L479.06789499999996,295.46318041513126L479.9658625,293.82916008456357L480.86383,290.20443621336466L481.7617975,296.1204548673554L482.659765,294.42455479099146L483.5577325,294.3137205008172L484.4557,294.0670717409057L485.35366750000003,296.0700890581451L486.251635,295.64354863847433L487.1496025,296.45303537198015L488.04757,299.00434045988806L488.9455375,300.3534261027852L489.843505,301.7639947231514L490.74147250000004,300.99352459040506L491.63944000000004,300.98030317685783L492.53740750000003,302.9629829069915L493.435375,305.8593528573467L494.3333425,304.9359585205518L495.23131,303.1628936262769L496.12927750000006,303.492521515039L497.02724500000005,303.76472054922374L497.92521250000004,303.74544075651005L498.82318000000004,303.8075220340334L499.72114750000003,304.86485264252366L500.619115,303.52046345313977L501.5170825000001,304.41041436783945L502.41505000000006,305.9252762364743L503.31301750000006,305.72713415999397L504.210985,306.35212643209445L505.1089525,306.58712621739187L506.00692,308.1466015276168L506.9048875,307.2090720507983L507.802855,305.52665746954943L508.7008225,304.17497037409044L509.59879,304.00432310865955L510.4967575,304.3856940020453L511.394725,303.7933344701394L512.2926925,302.8803461404216L513.1906600000001,300.0379654033241L514.0886275,299.2345924471424L514.9865950000001,298.1656270078505L515.8845625,297.59836699538903L516.78253,295.4615117715675L517.6804975,294.62139381244805L518.578465,293.87833225011843L519.4764325,290.91590728664414L520.3744,289.4950210627363L521.2723675,291.2197295615233L522.170335,288.6654065103656L523.0683025,289.5864381576638L523.96627,289.08101216485585L524.8642375000001,288.99940766875335L525.762205,291.01785012630137L526.6601725,288.4831853276293L527.55814,291.70810885237063L528.4561075,295.1317985090129L529.3540750000001,298.89380959769187L530.2520425,295.2871849770355L531.1500100000001,298.560663776001L532.0479775,298.90131946555823L532.945945,303.340266704973L533.8439125,305.5262494591208L534.74188,304.36341419914015L535.6398475000001,309.87282762605867L536.537815,308.419009512098L537.4357825,309.9721847458135L538.33375,312.6827082477769L539.2317175000001,314.19281755628276L540.129685,313.04927194072474L541.0276525,312.50112429820433L541.92562,313.96093347758404L542.8235875,316.199399934533L543.7215550000001,315.38749602422934L544.6195225,316.59943974960504L545.5174900000001,318.77611070910024L546.4154575,317.0742387297863L547.313425,320.1973265984149L548.2113925,319.7117022926403L549.10936,321.28405693966494L550.0073275000001,323.1830890766648L550.905295,325.860909861872L551.8032625000001,325.3826889233187L552.70123,324.5542126477873L553.5991975000001,326.4654881382876L554.4971650000001,325.16750147063675L555.3951325,323.2006292869182L556.2931000000001,323.9590021506573L557.1910675,323.69241520052157L558.0890350000001,322.7610675397317L558.9870025,321.2359639980634L559.8849700000001,318.8641754824511L560.7829375000001,317.5992697444433L561.680905,316.12637719367933L562.5788725000001,314.5774837267795L563.47684,313.49338188031504L564.3748075000001,311.1732096315161L565.2727749999999,309.72427895790224L566.1707425,308.1838351796141L567.06871,306.7408911081211L567.9666775,306.6404776217188L568.864645,308.28880597366054L569.7626124999999,306.6372006059739L570.66058,306.463984661186L571.5585475,305.5551760187818L572.456515,302.78678516615025L573.3544825,302.76187926664824L574.25245,302.81404421436685L575.1504175,301.17044193830407L576.0483849999999,299.77136298009805L576.9463525,299.18094760687393L577.84432,297.7211786686281L578.7422875,298.14211162558394L579.640255,298.11991469566976L580.5382225,296.4256871140397L581.43619,295.76952507427507L582.3341575000001,293.6550822254016L583.232125,294.3809363469278L584.1300925,293.3565502893762L585.02806,291.42660813073627L585.9260275,291.7606559851989L586.823995,292.7942328198135L587.7219625,293.11142675625325L588.6199300000001,291.9886429626508L589.5178975,292.71629670053824L590.415865,295.6902621347913L591.3138325,294.1933169910676L592.2118,295.43551060393384L593.1097675,295.2876359270806L594.007735,296.3961517561909L594.9057025000001,298.34382194435085L595.80367,300.8249056375463L596.7016375000001,300.8447963099828L597.599605,301.4958749541562L598.4975725,300.9938078315195L599.3955400000001,306.2184493614146L600.2935075,307.11388302667217L601.1914750000001,308.03839967666687L602.0894425,307.1703988156209L602.9874100000001,307.36648094109614L603.8853775,309.20885841649306L604.783345,309.369876526209L605.6813125000001,310.0206744229096L606.57928,310.0794485144057L607.4772475000001,309.7510348289997L608.375215,307.23604679106006L609.2731825000001,304.8000184595452L610.1711500000001,303.290656987418L611.0691175000001,303.572650907508L611.9670850000001,300.68004123892104L612.8650525,298.7187852736371L613.7630200000001,296.98038677124634L614.6609874999999,294.59603432847825L615.558955,293.36720467792964L616.4569225,290.15393204440284L617.35489,285.73989045420973L618.2528575,282.0774263830955L619.1508249999999,279.58607592956025L620.0487925,277.7417012900178L620.94676,273.65680070877585L621.8447275,268.8504740719836L622.742695,265.877124469665L623.6406625,262.818907005141L624.53863,259.8912655644018L625.4365975,257.4346543806711L626.334565,254.6249314703877L627.2325325,254.6101749951311L628.1305,254.90386702733582L629.0284675,252.54427440418675L629.926435,252.58255276404918L630.8244025,251.48973750609633L631.72237,250.6394235645809L632.6203375,250.69453280012436L633.518305,249.35277787240844L634.4162725,250.7574881251057L635.31424,251.19008872234025L636.2122075,252.60717088240943L637.110175,255.59017887082547L638.0081425000001,257.56214064571736L638.90611,260.54552188923736L639.8040775000001,261.9297773465378L640.702045,266.04772138385874L641.6000125,270.16021330665666L642.49798,275.26159570822017L643.3959475,277.9256016594879L644.2939150000001,282.0876547251313L645.1918825,287.77740578446145L646.0898500000001,288.9943223185806L646.9878175,296.2161930567001L647.885785,294.7229859255532L648.7837525000001,295.8607384008392L649.68172,295.5975594029604L650.5796875000001,294.3699896228933L651.477655,295.14529934625807L652.3756225000001,297.6484407623687L653.27359,302.5568872944577L654.1715575000001,304.7337287009607L655.0695250000001,304.3959654355725L655.9674925,301.8330959411208L656.8654600000001,297.76148888721025L657.7634275,294.2368406870282L658.6613950000001,283.29008560485175L659.5593625,278.47366190915534L660.4573300000001,272.52341802887304L661.3552975000001,268.8955153788899L662.253265,270.1484673770884L663.1512325000001,268.74625519058065L664.0491999999999,269.1277646743533L664.9471675,267.1098813576123L665.845135,267.63243997554946L666.7431025,269.5940910662092L667.64107,267.0025865169269L668.5390375,267.1522414220891L669.437005,265.9388830577152L670.3349724999999,262.616821504022L671.23294,255.92359870464435L672.1309075,256.0502788455552L673.028875,260.1496697337442L673.9268425,259.23196375378075L674.82481,261.6799220598388L675.7227775,268.30660069995315L676.620745,270.5250398510749L677.5187125,269.7182415051504L678.41668,268.15437176094406L679.3146475,269.98614914131923L680.212615,272.06306942264445L681.1105825,272.99074799068933L682.00855,264.6797082300835L682.9065175000001,260.8474581429047L683.804485,261.42233857939107L684.7024525,261.1671884284772L685.60042,262.1525856698638L686.4983875,260.042397486773L687.396355,256.60559283225285L688.2943225,260.4271965005282L689.1922900000001,264.4237342560914L690.0902575,263.44188061433056L690.988225,268.1059691077631L691.8861925,271.59185364950986L692.78416,268.1678120240314L693.6821275000001,264.891901787499L694.580095,267.3604309506253L695.4780625000001,264.612484355532L696.37603,264.92190410277277L697.2739975000001,261.9205982023957L698.171965,259.5097418756868L699.0699325,250.62644698870866L699.9679000000001,247.6721555491502L700.8658675,246.3358543841215L701.7638350000001,240.7587475560643L702.6618025,237.6758455866605L703.5597700000001,236.11229273748637L704.4577375000001,235.915531693079L705.3557050000001,236.90670625541838L706.2536725000001,242.95806987980393L707.15164,256.84198857624835L708.0496075000001,256.385899799502L708.947575,259.88671788886074L709.8455425000001,265.37405382466227L710.7435100000001,264.0440627914422L711.6414775000001,263.3251961717409L712.5394450000001,262.7244220979533L713.4374124999999,261.68570970833474L714.33538,262.5162493200316L715.2333474999999,265.50634388873686L716.131315,264.6251377125558L717.0292825,268.5884773740402L717.92725,264.56528951718263L718.8252175,263.86628937160054L719.723185,261.34660241154893L720.6211525,258.72263643620863L721.51912,256.9971829404708L722.4170875,254.05461449545828L723.315055,255.04344893393682L724.2130225,253.7287255811514L725.11099,253.52956035517226L726.0089575,253.76283302134334L726.906925,254.63314627509163L727.8048925,253.35874289592778L728.70286,256.58234432713726L729.6008275,259.61231040419375L730.498795,260.17389063168554L731.3967625,258.8150682539065L732.2947300000001,261.31204994204194L733.1926975,260.0541236486638L734.0906650000001,258.27640397760103L734.9886325,256.9813077848183L735.8866,255.15171817628755L736.7845675,256.587240999446L737.682535,255.65018776139078L738.5805025000001,256.34696494166417L739.47847,255.91165840724602L740.3764375000001,258.39931259949594L741.274405,257.78813459316564L742.1723725,258.3172565272623L743.07034,259.85955665518236L743.9683075,258.3410658725849L744.8662750000001,259.68957592318463L745.7642425,258.8345606809458L746.6622100000001,255.8701633505504L747.5601775,251.91919134557094L748.4581450000001,248.21271106481427L749.3561125000001,241.62280112171075L750.25408,238.83033378810805L751.1520475000001,235.52053670001922L752.050015,235.00717448483226L752.9479825000001,234.6728416672573L753.84595,231.80438317229155L754.7439175000001,231.74652114526276L755.6418850000001,233.8936694432564L756.5398525,234.30716720972597L757.4378200000001,235.54203100803804L758.3357875,237.0879795789982L759.2337550000001,237.1414877224179L760.1317225000001,238.6974634828736L761.0296900000001,240.3204996778623L761.9276575000001,242.02101614110117L762.825625,242.01907870477393L763.7235925,242.4377506566521L764.6215599999999,239.45362103084537L765.5195275,238.1080211790388L766.417495,235.1720359541563L767.3154625,232.31181497395738L768.21343,230.60660099840723L769.1113975,228.27001734142752L770.009365,220.49173095993402L770.9073324999999,220.9526605333662L771.8053,220.94832252230455L772.7032675,221.6451089951691L773.601235,220.58059230592224L774.4992025,220.79540513154961L775.39717,217.46357102868637L776.2951375,220.14614030263962L777.1931050000001,223.57344894522146L778.0910725,228.9502700361706L778.98904,230.48293114448364L779.8870075,229.33926553841252L780.784975,228.2034687194492L781.6829425,233.15195969607558L782.58091,236.64941096040508L783.4788775000001,240.22139163997093L784.376845,240.03883862802442L785.2748125,238.4415048909907L786.17278,239.6866726170162L787.0707475,239.94477248272733L787.9687150000001,237.81028257434716L788.8666825,236.73851194242755L789.7646500000001,235.92121875174936L790.6626175,239.30894457489725L791.5605850000001,238.85014894795796L792.4585525,240.64418882761305L793.35652,243.662313485415L794.2544875000001,248.186254741169L795.152455,248.91828848712998L796.0504225000001,250.65234837765183L796.94839,256.39689429737876L797.8463575000001,258.970022470059L798.744325,260.75855127239385L799.6422925,261.2120260688794L800.5402600000001,263.2856577971087L801.4382275,260.4885843236054L802.3361950000001,257.1970592513724L803.2341625,254.76024976373066L804.1321300000001,251.8548397064237L805.0300975000001,251.61728181839214L805.9280650000001,245.94695630550564L806.8260325000001,236.97842278862143L807.724,234.88089816398735L808.6219675000001,230.73380803447816L809.519935,225.17905812725903L810.4179025000001,218.16280226123718L811.3158700000001,217.0848064042122L812.2138375,213.3473566990686L813.111805,212.64532079550366L814.0097724999999,211.26859244229587L814.90774,210.74858551599337L815.8057075,215.11157580357994L816.703675,215.32958866391343L817.6016425,217.11678119209418L818.49961,216.9716376535655L819.3975775,216.53095935285577L820.295545,212.99206891775518L821.1935125,211.42034433937383L822.09148,210.39487439041383L822.9894475,207.91978051857194L823.887415,203.64357142604223L824.7853825,200.6435380185193L825.68335,199.45513608650737L826.5813175000001,197.10611958659786L827.479285,194.40130571490204L828.3772525,191.15316711716397L829.27522,188.34743640941417L830.1731875,183.73002203402547L831.071155,183.1947681021502L831.9691225,183.95590973471087L832.8670900000001,183.5531938789247L833.7650575,183.70343828185068L834.6630250000001,181.54722215639487L835.5609925,179.06439165677182L836.45896,178.54309643431938L837.3569275,177.30745306908636L838.254895,176.2511214041674L839.1528625000001,174.81100426864336L840.05083,174.20526211700212L840.9487975000001,175.86165518157776L841.846765,176.10764793867344L842.7447325,172.1657124385395L843.6427000000001,173.087361181987L844.5406675,169.6538849840265L845.4386350000001,167.95779215889783L846.3366025,166.36611706413913L847.2345700000001,165.60800393420925L848.1325375,163.41060205140488L849.0305050000001,161.5946454385024L849.9284725000001,160.74143986535884L850.82644,159.5922585855549L851.7244075000001,158.33733985985322L852.622375,157.84671943159898L853.5203425000001,159.8963983438174L854.4183100000001,158.25040238553362L855.3162775000001,156.68202582879132L856.2142450000001,156.33594764934588L857.1122125,152.9696105898747L858.0101800000001,150.1817521906955L858.9081475,144.75236267861231L859.8061150000001,143.85230584952438L860.7040825000001,140.78309847524326L861.60205,133.64494582502493L862.5000175,130.7543732936259L863.397985,129.13642956217734L864.2959525,125.41504706542182L865.1939199999999,124.12299952825299L866.0918875,123.64775879160874L866.989855,120.72397100270837L867.8878225,120.4391903252685L868.78579,117.43597262154293L869.6837575,115.49903114517747L870.581725,112.72010269705629L871.4796925,112.20953451589088L872.37766,110.11236254847319L873.2756275,109.11067502718186L874.173595,105.6514440172594L875.0715625,101.87850068042127L875.96953,101.82324573858142L876.8674975,99.23703634153657L877.7654650000001,96.50121484288252L878.6634325,96.51763214499692L879.5614,94.69472756887228L880.4593675,93.73229603214867L881.357335,92.70791053329947L882.2553025000001,93.3715075076027L883.15327,95.53551872733459L884.0512375000001,94.45779104998292L884.949205,92.7961094345298L885.8471725,92.43103587831234L886.74514,93.49362939997656L887.6431075,93.8938176854781L888.5410750000001,92.55929546231675L889.4390425,92.07794076819937L890.3370100000001,92.02792422787127L891.2349775,92.03406078351168L892.1329450000001,93.75068303690455L893.0309125,94.5688748101083L893.92888,94.7602288420747L894.8268475000001,95.02302686180673L895.724815,94.1633450619857L896.6227825000001,92.39781353890743L897.52075,90.28722587919117L898.4187175000001,89.62954129295252L899.3166850000001,88.98509558929368L900.2146525,86.67100226794372L901.1126200000001,85.6840465920344L902.0105875,84.48969267981653L902.9085550000001,85.14131589235785L903.8065225,83.03730724574666L904.7044900000001,83.80615658379827L905.6024575000001,84.98794261628177L906.5004250000001,88.06494225830858L907.3983925000001,91.63083480335098L908.29636,94.91638064175311L909.1943275000001,99.60985269379188L910.0922950000001,102.68652549609789L910.9902625,101.33950407684051L911.88823,101.52923250341576L912.7861975,102.08607858772405L913.684165,101.00728225036727L914.5821325,98.51205962597737L915.4801,93.34648482083804L916.3780675,91.32321303748711L917.276035,86.93210077972111L918.1740025,86.56303099227671L919.07197,85.3803560529766L919.9699375,82.05354385651094L920.867905,76.38808969717775L921.7658725,75.89876069435718L922.66384,74.42032254703236L923.5618075,72.9515493279091L924.459775,74.71347340626653L925.3577425,71.80337161289162L926.25571,69.6699037112117L927.1536775000001,66.07023826895716L928.051645,63.370296144950885L928.9496125000001,62.74018159903562L929.84758,62.30517765837891L930.7455475,61.57533385720234L931.643515,59.51475212070454L932.5414825,55.349270377899074L933.4394500000001,57.414741104717905L934.3374175,59.44652142991691L935.2353850000001,61.39238066093179L936.1333525,61.72360768807772L937.03132,61.027933277232194L937.9292875000001,61.314865657125154L938.827255,61.170069081333565L939.7252225000001,64.84343149721417L940.62319,61.430249481676356L941.5211575000001,63.55058298530446L942.419125,60.96020788528335L943.3170925000001,58.87552501184001L944.2150600000001,62.24222237763604L945.1130275,57.76479652164613L946.0109950000001,55.05747759054691L946.9089625,55.72364841231183L947.8069300000001,55.98904102904373L948.7048975,54.5028756607594L949.6028650000001,54.805073222241504L950.5008325000001,52.423618495243204L951.3988,48.9994013879915L952.2967675000001,51.396590659953745L953.194735,49.299357393533L954.0927025000001,49.04331373465061L954.9906700000001,50.30691228303914L955.8886375000001,53.26567482307439L956.7866050000001,55.752576250671325L957.6845725000001,54.117273441027805L958.5825400000001,56.491021473464286L959.4805074999999,56.875407796904994L960.378475,57.07306868060874L961.2764425,57.39870215594328L962.17441,60.48948292684207L963.0723775,59.63416061362943L963.970345,58.59985002486957L964.8683125,58.727087890379096L965.76628,53.65712069453588L966.6642475,52.3681046595716L967.562215,55.537135361873595L968.4601825,53.04288740097962L969.35815,53.050325660224644L970.2561175,52.911709407421654L971.154085,50.93337940490454L972.0520525000001,53.03805894308266L972.95002,53.58782708686965L973.8479875,51.948384933808484L974.745955,53.87688373974083L975.6439225,50.37173881094549L976.54189,53.132251964894124L977.4398575,54.16941605479485L978.3378250000001,53.53011904455002L979.2357925,55.15588308888101L980.13376,53.17728188766972L981.0317275,51.735633264652336L981.929695,49.244273327725296L982.8276625000001,49.012173613657296L983.72563,47.58988356331963L984.6235975000001,49.75902160437886L985.521565,53.6127089598337L986.4195325000001,57.8645332605488L987.3175,58.20872606522619" style="fill: none;" fill="none"></path></g></g></g></g><g opacity="0.2"><g><g><g><path stroke="rgb(0, 119, 187)" stroke-width="2px" d="M90.2479675,295.56774641275405L91.14593500000001,290.60799323022366L92.0439025,296.02897279858587L92.94187000000001,293.3699380159378L93.83983750000002,289.8649822533131L94.737805,287.15423731058837L95.6357725,288.3922448784113L96.53374000000001,287.4160930618644L97.4317075,287.4785215705633L98.32967500000001,286.7994894862175L99.2276425,292.57746402025225L100.12561000000001,283.2479427874088L101.0235775,285.75773629546165L101.921545,282.9144958080724L102.8195125,288.0893001526594L103.71748000000001,285.6369474515319L104.6154475,285.5891091674566L105.51341500000001,284.7910651959479L106.41138250000002,283.83781554847957L107.30935,283.49010101002057L108.2073175,285.6675002932549L109.10528500000001,289.5343125522137L110.0032525,288.01546555012465L110.90122000000001,283.66684159906583L111.7991875,285.4073075786233L112.69715500000001,284.403651304543L113.5951225,284.44254009984434L114.49309,287.022241486609L115.3910575,290.90131402909753L116.28902500000001,291.5333806067705L117.1869925,287.64105559140444L118.08496000000001,287.67430280596017L118.98292750000002,286.248200301826L119.880895,287.8610360518098L120.7788625,286.12058892399074L121.67683000000001,289.0448396086693L122.5747975,288.0653186291456L123.47276500000001,287.2310983300209L124.37073250000002,284.5856645397842L125.2687,288.94321328401566L126.1666675,286.13458631336687L127.064635,284.92720579728484L127.9626025,289.3424457192421L128.86057,287.918867482245L129.7585375,294.51721757054327L130.656505,292.6646888136864L131.5544725,289.96031804680825L132.45244,289.3259398341179L133.35040750000002,287.3128304556012L134.248375,287.6119821622968L135.1463425,285.2512671455741L136.04431,293.5446928918362L136.94227750000002,292.32457768321035L137.840245,290.17830398976804L138.7382125,290.6911591440439L139.63618000000002,291.6150887936354L140.53414750000002,290.5624279975891L141.43211499999998,295.7543005406857L142.3300825,290.5881995737553L143.22805,294.79558371305467L144.1260175,292.3214008748531L145.023985,289.5734548866749L145.9219525,286.5182822406292L146.81992,288.8089728534222L147.71788750000002,291.10025883615015L148.615855,287.81943788677455L149.5138225,288.43663063645363L150.41179000000002,284.35053094290197L151.30975750000002,288.6367566078901L152.207725,292.3734667360783L153.10569250000003,288.097671662271L154.00366,285.168917119503L154.9016275,283.6381260713562L155.799595,289.6842190414667L156.6975625,287.71786535382273L157.59553,290.1523392140865L158.49349750000002,285.48696351349355L159.391465,283.29494631439445L160.2894325,289.3811960220337L161.18740000000003,286.7251701951027L162.08536750000002,290.688644734025L162.983335,283.81174561847L163.8813025,288.2289124310017L164.77927000000003,287.28463571816684L165.6772375,288.14851045310496L166.57520499999998,288.2550354838371L167.4731725,288.37738259732726L168.37114,296.0781727731228L169.2691075,292.96811907291413L170.167075,287.81619179695844L171.0650425,294.5227814912796L171.96301,298.01831835508347L172.86097750000002,289.9130579531193L173.758945,290.60645214021207L174.6569125,296.43222693800925L175.55488000000003,280.0829401597381L176.45284750000002,292.8422036826611L177.350815,294.0914734303951L178.2487825,286.71658013910053L179.14675,290.846072486043L180.0447175,288.78020696640016L180.942685,296.0677951991558L181.8406525,293.38172712922096L182.73862,292.1075549215078L183.63658750000002,280.2721512034535L184.534555,285.48964873328805L185.4325225,281.0682576879859L186.33049000000003,300.4306931197643L187.22845750000002,291.90413160324096L188.126425,294.2777842283249L189.02439250000003,291.3978615671396L189.92236000000003,290.0995856076479L190.8203275,299.03043485283854L191.718295,297.14946577548983L192.6162625,287.6530381858349L193.51423,282.79742770940067L194.4121975,285.4816789716482L195.310165,278.71521404385567L196.2081325,272.15091184973716L197.1061,284.98094089105723L198.00406750000002,293.97045280337335L198.902035,257.6149712204933L199.8000025,258.4825395584106L200.69797000000003,253.2812683939934L201.59593750000002,279.59458951950074L202.49390499999998,260.0832994937897L203.3918725,281.3779335580766L204.28984,253.47016682624815L205.1878075,254.65418583154678L206.085775,268.62855686545373L206.9837425,222.31316149234772L207.88171,250.28933000564575L208.77967750000002,256.42905964851377L209.677645,244.87926142215727L210.5756125,257.44968255758283L211.47358000000003,235.9169533252716L212.37154750000002,247.9372751712799L213.269515,226.32848052978514L214.16748250000003,235.77629506587982L215.06545,233.31027166843413L215.9634175,231.13938052654268L216.861385,231.45821943283082L217.7593525,230.97019407749175L218.65732,238.57855095863343L219.55528750000002,231.6568127632141L220.453255,222.16837112903593L221.3512225,235.93228311538698L222.24919000000003,234.79125916957855L223.14715750000002,240.75302896499633L224.045125,222.13635070323946L224.9430925,239.7274380683899L225.84106000000003,228.52139303684234L226.73902750000002,243.0937464237213L227.63699499999998,254.08926368951796L228.5349625,218.87680563926696L229.43293,239.30906817913055L230.3308975,233.6572467327118L231.228865,229.6092448711395L232.1268325,216.94521152973175L233.0248,243.27396383285523L233.92276750000002,228.56438133716583L234.820735,250.84703110456468L235.7187025,228.34088723659514L236.61667000000003,219.23067054748535L237.51463750000002,242.30881340503694L238.412605,231.8798562526703L239.31057250000003,236.2681280851364L240.20854,234.1427036046982L241.1065075,238.68612084388732L242.004475,229.45660936832428L242.9024425,238.81004340648653L243.80041,231.78009095191956L244.69837750000002,238.7277753353119L245.596345,245.6027491092682L246.4943125,246.00951801538466L247.39228000000003,209.25957033634185L248.29024750000002,235.61974375247954L249.188215,249.23588007688522L250.08618250000004,243.52816708087923L250.98415000000003,271.18951839208603L251.8821175,228.05908405780792L252.78008499999999,252.51397229433059L253.6780525,239.69636392593384L254.57602,233.40753607749937L255.4739875,255.93687289953232L256.371955,236.33570172786713L257.2699225,246.85129562616348L258.16789,246.94023274183272L259.0658575,251.53545899391173L259.963825,245.7391738772392L260.8617925,247.7319542169571L261.75976,237.83484435081482L262.6577275,237.58156485557558L263.555695,221.83025057315828L264.4536625,239.1772599220276L265.35163,212.6256804227829L266.2495975,234.70247526168825L267.14756500000004,235.39113972187042L268.04553250000004,221.40157520771027L268.94350000000003,200.89913449287414L269.8414675,218.1205404996872L270.739435,217.8357092142105L271.6374025,230.82460613250734L272.53537,220.31018607616423L273.4333375,242.52138919830324L274.33130500000004,243.53595814704894L275.22927250000004,226.81234674453734L276.12724000000003,227.64397208690642L277.0252075,228.41480548381807L277.923175,243.33511176109315L278.8211425,217.99197664260865L279.71911000000006,229.50368471145632L280.61707750000005,219.4472838163376L281.51504500000004,251.77009670734407L282.4130125,239.3258579492569L283.31098,238.76815009117126L284.20894749999997,243.47968132495882L285.106915,252.6795020341873L286.0048825,219.94269919395447L286.90285,251.7122968196869L287.8008175,244.91884760856627L288.698785,261.24260247945784L289.5967525,245.88570810556413L290.49472000000003,242.996324300766L291.3926875,240.76024775505064L292.290655,277.80110095739366L293.1886225,260.82804250717163L294.08659,259.25699136257174L294.9845575,242.66492235660553L295.88252500000004,238.2455718755722L296.78049250000004,243.09376895427704L297.67846000000003,254.42322961091998L298.5764275,232.56018440723417L299.474395,249.41142690181732L300.3723625,248.5979364037514L301.27033,252.22005668878558L302.16829750000005,244.81577932834625L303.06626500000004,254.8229599714279L303.96423250000004,248.9388484954834L304.86220000000003,263.5116998076439L305.7601675,263.84284715652467L306.65813499999996,255.70538045167922L307.5561025,262.0914907336235L308.45407,271.4126339793205L309.3520375,281.89639896154404L310.250005,267.81644185781477L311.1479725,285.1893835946918L312.04594,252.58141300678255L312.9439075,279.48590268194675L313.841875,274.50651806294917L314.7398425,269.11679513454436L315.63781,281.6463944233954L316.5357775,270.9331792473793L317.433745,285.42639771848917L318.33171250000004,266.58179556727407L319.22968000000003,287.95072259008884L320.1276475,284.91415201574563L321.025615,277.99762316644194L321.9235825,272.08593823313714L322.82155,279.3205562844872L323.71951750000005,278.1498790293932L324.61748500000004,279.98455457389355L325.51545250000004,325.51075358390807L326.41342000000003,275.51139718294144L327.3113875,279.6722534716129L328.209355,281.21531293541193L329.1073225,290.136557123065L330.00529000000006,291.3605627954006L330.90325750000005,284.68471928313375L331.801225,278.74744794666765L332.6991925,295.61252251267433L333.59716,304.51657447814944L334.49512749999997,316.3428992271423L335.393095,286.9698258385062L336.2910625,291.8640429854393L337.18903,290.06117213666437L338.0869975,291.5721641421318L338.984965,302.9469743013382L339.8829325,285.3847775861621L340.78090000000003,308.8635523080826L341.6788675,293.50954973101614L342.576835,290.0189295977354L343.4748025,317.89728677272797L344.37277,305.46165919303894L345.2707375,299.7052171111107L346.16870500000005,324.0424868345261L347.06667250000004,285.5549213021994L347.96464000000003,301.9736655592918L348.8626075,287.2965695902705L349.760575,288.6198367238045L350.6585425,309.47456295490264L351.55651000000006,293.97568890452385L352.45447750000005,304.32529681921005L353.35244500000005,290.16685170829294L354.25041250000004,303.3222342252731L355.14838000000003,302.7728784441948L356.04634749999997,291.29075468480585L356.94431499999996,307.69436066150666L357.8422825,289.90592365264894L358.74025,308.36837800741193L359.6382175,291.97489838898184L360.536185,297.3900628209114L361.4341525,302.02663376927376L362.33212,288.10378504693506L363.2300875,295.02737919688224L364.128055,291.4538595736027L365.0260225,311.1129579305649L365.92399,305.38492012023926L366.8219575,288.47627709209917L367.719925,296.83023483753203L368.61789250000004,290.3906184285879L369.51586000000003,301.7335033535957L370.4138275,305.93265595436094L371.311795,294.22008009552957L372.2097625,310.5864886879921L373.10773,292.2065981179476L374.00569750000005,293.8841799259186L374.90366500000005,286.7650419563055L375.80163250000004,322.49488549232484L376.69960000000003,303.1644932985306L377.5975675,290.241570353508L378.495535,295.3113689661026L379.39350250000007,287.5504816308618L380.29147000000006,301.39205278158187L381.1894375,281.1476333990693L382.087405,298.24815593361853L382.9853725,293.9442362487316L383.88334,291.8638565450907L384.78130749999997,294.300789052248L385.679275,288.3420631349087L386.5772425,303.8888551712036L387.47521,309.16773734092715L388.3731775,325.9490990638733L389.271145,294.47934821248055L390.1691125,303.49102864265444L391.06708000000003,305.75604794025423L391.9650475,306.56236020326617L392.863015,290.35528882741926L393.7609825,290.3822426944971L394.65895,308.51462384462354L395.5569175,289.8861001431942L396.45488500000005,292.1544207304716L397.35285250000004,288.8240846604109L398.25082000000003,298.70890129208567L399.1487875,303.27272107601163L400.046755,284.1493127323687L400.9447225,284.3364556822926L401.84269000000006,282.7848817806691L402.74065750000005,285.1791719019413L403.63862500000005,300.21154178380965L404.53659250000004,284.79831017777326L405.43456,284.0999093491584L406.33252749999997,289.67226770818235L407.230495,290.76447807848456L408.1284625,289.6113101631403L409.02643,282.0776819251478L409.9243975,291.55972783863547L410.822365,286.16533319950105L411.7203325,293.18739545345306L412.61830000000003,291.1463828265667L413.5162675,279.86808455586436L414.414235,284.6741639994085L415.3122025,287.1475651681423L416.21017,284.0134667180479L417.1081375,284.7428312189877L418.006105,290.6978169232607L418.90407250000004,305.2998785376549L419.80204000000003,283.75868330821396L420.7000075,284.6018853429705L421.597975,282.77318060696126L422.4959425,272.4787697374821L423.39391,282.0974264368415L424.29187750000006,287.1355822920799L425.18984500000005,281.5742555268109L426.08781250000004,280.1712283954024L426.98578000000003,291.08260614573953L427.8837475,288.2572784006596L428.781715,302.4374390244484L429.67968250000007,286.59402743428944L430.57765,279.1921746432781L431.4756175,297.2601527631283L432.373585,288.0709157824516L433.2715525,303.33451788425447L434.16952,287.2045533925295L435.0674875,300.09594876766204L435.965455,309.4077868938446L436.8634225,305.28947167396547L437.76139,287.2240375354886L438.6593575,285.58075385168195L439.557325,288.80530769526956L440.45529250000004,291.90939474105835L441.35326000000003,299.0486924886703L442.2512275,289.19443179666996L443.149195,308.2067054986954L444.0471625,281.42160045057534L444.94513,295.6312375187874L445.8430975,298.80527236461637L446.74106500000005,286.70288972854615L447.63903250000004,293.2410936534405L448.53700000000003,306.08199523687364L449.4349675,295.8202925384045L450.332935,294.23379895091057L451.2309025,285.9366900220513L452.12887000000006,289.34381614029405L453.02683750000006,285.54472059309484L453.92480500000005,285.16788493841887L454.8227725,293.7610369205475L455.72074,284.54923840463164L456.61870749999997,281.506804112345L457.516675,291.5011726140976L458.4146425,288.41250266432763L459.31261,291.98825619220736L460.2105775,291.9541843593121L461.108545,290.59592868089675L462.0065125,285.04445114806293L462.90448000000004,294.39382447600366L463.8024475,293.9743381977081L464.700415,279.8763850942254L465.5983825,290.9931654721498L466.49635,283.06806446313857L467.3943175,292.42293820381167L468.29228500000005,294.48002074956895L469.19025250000004,287.9392686188221L470.08822000000004,289.7869566857815L470.9861875,302.2823668420315L471.884155,295.9399399280548L472.7821225,291.5189756959677L473.68009,298.16056727170945L474.57805750000006,289.9868027150631L475.47602500000005,284.59179848358036L476.37399250000004,302.4524421215057L477.27196000000004,291.1620691627264L478.16992750000003,293.7096312046051L479.06789499999996,304.56377824544904L479.9658625,287.29307876229285L480.86383,275.705540728569L481.7617975,319.78452948331835L482.659765,287.64095448553564L483.5577325,293.8703833401203L484.4557,293.0804767012596L485.35366750000003,304.08215832710266L486.251635,293.9373869597912L487.1496025,299.69098230600355L488.04757,309.2095608115196L488.9455375,305.7497686743736L489.843505,307.40626920461654L490.74147250000004,297.91164405941964L491.63944000000004,300.92741752266886L492.53740750000003,310.8937018275261L493.435375,317.4448326587677L494.3333425,301.2423811733723L495.23131,296.07063404917716L496.12927750000006,304.81103307008743L497.02724500000005,304.8535166859627L497.92521250000004,303.66832158565524L498.82318000000004,304.0558471441269L499.72114750000003,309.0941750764847L500.619115,298.1429066956043L501.5170825000001,307.970218026638L502.41505000000006,311.98472371101377L503.31301750000006,304.93456585407256L504.210985,308.8520955204964L505.1089525,307.52712535858154L506.00692,314.38450276851654L506.9048875,303.4589541435242L507.802855,298.79699914455415L508.7008225,298.76822199225427L509.59879,303.32173404693606L510.4967575,305.9111775755882L511.394725,301.42389634251595L512.2926925,299.22839282155036L513.1906600000001,288.6684424549341L514.0886275,296.02110062241553L514.9865950000001,293.88976525068284L515.8845625,295.3293269455433L516.78253,286.91409087628125L517.6804975,291.2609219759703L518.578465,290.90608600080014L519.4764325,279.06620743274686L520.3744,283.8114761671051L521.2723675,298.1185635566711L522.170335,278.44811430573463L523.0683025,293.2705647468567L523.96627,287.059308193624L524.8642375000001,288.67298968434335L525.762205,299.0916199564934L526.6601725,278.34452613294127L527.55814,304.6078029513359L528.4561075,308.826557135582L529.3540750000001,313.9418539524078L530.2520425,280.86068649441006L531.1500100000001,311.6545789718628L532.0479775,300.2639422237873L532.945945,321.096055662632L533.8439125,314.2701804757118L534.74188,299.7120731592178L535.6398475000001,331.9104813337326L536.537815,302.60373705625534L537.4357825,316.1848856806755L538.33375,323.5248022556305L539.2317175000001,320.2332547903061L540.129685,308.47508947849275L541.0276525,310.3085337281227L541.92562,319.8001701951027L542.8235875,325.1532657623291L543.7215550000001,312.13988038301466L544.6195225,321.4472146511078L545.5174900000001,327.48279454708097L546.4154575,310.2667508125305L547.313425,332.6896780729294L548.2113925,317.76920506954195L549.10936,327.5734755277634L550.0073275000001,330.7792176246643L550.905295,336.5721930027008L551.8032625000001,323.46980516910554L552.70123,321.24030754566195L553.5991975000001,334.1105901002884L554.4971650000001,319.9755548000336L555.3951325,315.3331405520439L556.2931000000001,326.99249360561373L557.1910675,322.62606739997864L558.0890350000001,319.0356768965721L558.9870025,315.1355498313904L559.8849700000001,309.377021420002L560.7829375000001,312.5396467924118L561.680905,310.2348069906235L562.5788725000001,308.38190985918044L563.47684,309.15697449445724L564.3748075000001,301.8925206363201L565.2727749999999,303.9285562634468L566.1707425,302.02206006646156L567.06871,300.96911482214927L567.9666775,306.2388236761093L568.864645,314.88211938142774L569.7626124999999,300.0307791352272L570.66058,305.7711208820343L571.5585475,301.9199414491653L572.456515,291.7132217556238L573.3544825,302.6622556686401L574.25245,303.0227040052414L575.1504175,294.59603283405306L576.0483849999999,294.17504714727403L576.9463525,296.81928611397745L577.84432,291.8821029156446L578.7422875,299.8258434534073L579.640255,298.0311269760132L580.5382225,289.64877678751947L581.43619,293.14487691521646L582.3341575000001,285.1973108299077L583.232125,297.2843528330326L584.1300925,289.2590060591698L585.02806,283.7068394961767L585.9260275,293.0968474030495L586.823995,296.9285401582718L587.7219625,294.38020250201225L588.6199300000001,287.4975077882409L589.5178975,295.62691165208815L590.415865,307.5861238718033L591.3138325,288.205536416173L592.2118,300.40428505539893L593.1097675,294.69613721966743L594.007735,300.83021507263186L594.9057025000001,306.134502696991L595.80367,310.7492404103279L596.7016375000001,300.9243589997292L597.599605,304.10018953084943L598.4975725,298.9855393409729L599.3955400000001,327.1170154809952L600.2935075,310.69561768770217L601.1914750000001,311.7364662766457L602.0894425,303.6983953714371L602.9874100000001,308.150809442997L603.8853775,316.5783683180809L604.783345,310.01394896507264L605.6813125000001,312.62386600971223L606.57928,310.31454488039014L607.4772475000001,308.43738008737563L608.375215,297.1760946393013L609.2731825000001,295.0559051334858L610.1711500000001,297.2532110989094L611.0691175000001,304.70062658786776L611.9670850000001,289.10960256457327L612.8650525,290.8737614125013L613.7630200000001,290.02679276168345L614.6609874999999,285.0586245574057L615.558955,288.4518860757351L616.4569225,277.30084151029587L617.35489,268.0837240934372L618.2528575,267.4275700986385L619.1508249999999,269.6206741154194L620.0487925,270.36420273184774L620.94676,257.31719838380815L621.8447275,249.6251675248146L622.742695,253.9837260603905L623.6406625,250.58603714704515L624.53863,248.180699801445L625.4365975,247.60820964574813L626.334565,243.38603982925414L627.2325325,254.55114909410474L628.1305,256.07863515615463L629.0284675,243.10590391159056L629.926435,252.73566620349885L630.8244025,247.11847647428513L631.72237,247.23816779851913L632.6203375,250.91496974229813L633.518305,243.9857581615448L634.4162725,256.37632913589476L635.31424,252.92049111127852L636.2122075,258.275499522686L637.110175,267.5222108244896L638.0081425000001,265.44998774528506L638.90611,272.4790468633175L639.8040775000001,267.4667991757393L640.702045,282.51949753314256L641.6000125,286.6101809978485L642.49798,295.6671253144741L643.3959475,288.5816254645586L644.2939150000001,298.7358669877052L645.1918825,310.53641002178193L646.0898500000001,293.86198845505714L646.9878175,325.1036760091782L647.885785,288.7501574009657L648.7837525000001,300.41174830198287L649.68172,294.54484341144564L650.5796875000001,289.4597105026245L651.477655,298.2465382397175L652.3756225000001,307.66100642681124L653.27359,322.1906734228134L654.1715575000001,313.441094326973L655.0695250000001,303.04491237401965L655.9674925,291.58161796331405L656.8654600000001,281.4750606715679L657.7634275,280.13824788630006L658.6613950000001,239.50306527614592L659.5593625,259.20796712636945L660.4573300000001,248.72244250774384L661.3552975000001,254.38390477895734L662.253265,275.1602753698826L663.1512325000001,263.1374064445496L664.0491999999999,270.6538026094437L664.9471675,259.03834809064864L665.845135,269.72267444729806L666.7431025,277.44069542884824L667.64107,256.6365683197975L668.5390375,267.75086104273794L669.437005,261.0854496002197L670.3349724999999,249.32857528924941L671.23294,229.1507075071335L672.1309075,256.55699940919874L673.028875,276.5472332865L673.9268425,255.56113983392714L674.82481,271.471755284071L675.7227775,294.8133152604103L676.620745,279.3987964555621L677.5187125,266.4910481214523L678.41668,261.89889278411863L679.3146475,277.31325866281986L680.212615,280.3707505479455L681.1105825,276.70146226286886L682.00855,231.4355491876602L682.9065175000001,245.51845779418946L683.804485,263.7218603253365L684.7024525,260.1465878248215L685.60042,266.0941746354103L686.4983875,251.6016447544098L687.396355,242.85837421417236L688.2943225,275.7136111736298L689.1922900000001,280.4098852783442L690.0902575,259.514466047287L690.988225,286.7623230814934L691.8861925,285.5353918164968L692.78416,254.47164552211763L693.6821275000001,251.7882608413696L694.580095,277.23454760313035L695.4780625000001,253.6206979751587L696.37603,266.15958309173584L697.2739975000001,249.9153746008873L698.171965,249.8663165688515L699.0699325,215.0932674407959L699.9679000000001,235.85498979091645L700.8658675,240.99064972400666L701.7638350000001,218.45032024383545L702.6618025,225.34423770904542L703.5597700000001,229.8580813407898L704.4577375000001,235.1284875154495L705.3557050000001,240.871404504776L706.2536725000001,267.16352437734605L707.15164,312.3776633620262L708.0496075000001,254.56154469251635L708.947575,273.88999024629595L709.8455425000001,287.32339756786826L710.7435100000001,258.72409865856173L711.6414775000001,260.44972969293593L712.5394450000001,260.321325802803L713.4374124999999,257.53086014986036L714.33538,265.838407766819L715.2333474999999,277.466722163558L716.131315,261.1003130078316L717.0292825,284.4418360199779L717.92725,248.4725380897522L718.8252175,261.0702887892723L719.723185,251.26785457134247L720.6211525,248.22677253484724L721.51912,250.09536895751955L722.4170875,242.28434071540832L723.315055,258.99878668785095L724.2130225,248.4698321700096L725.11099,252.73289945125578L726.0089575,254.69592368602753L726.906925,258.11439929008486L727.8048925,248.26112937927246L728.70286,269.4767500519753L729.6008275,271.7321747124195L730.498795,262.4202115416527L731.3967625,253.37977874279022L732.2947300000001,271.2999766945839L733.1926975,255.02241847515108L734.0906650000001,251.16552529335024L734.9886325,251.8009230136871L735.8866,247.83335974216462L736.7845675,262.3293322920799L737.682535,251.90197480916976L738.5805025000001,259.1340736627579L739.47847,254.1704322695732L740.3764375000001,268.34992936849596L741.274405,255.3434225678444L742.1723725,260.433744263649L743.07034,266.0287571668625L743.9683075,252.2671027421951L744.8662750000001,265.08361612558366L745.7642425,255.41449971199035L746.6622100000001,244.01257402896883L747.5601775,236.11530332565306L748.4581450000001,233.38678994178773L749.3561125000001,215.26316134929655L750.25408,227.6604644536972L751.1520475000001,222.28134834766388L752.050015,232.95372562408446L752.9479825000001,233.3355103969574L753.84595,220.3305491924286L754.7439175000001,231.51507303714752L755.6418850000001,242.48226263523102L756.5398525,235.96115827560425L757.4378200000001,240.48148620128632L758.3357875,243.27177386283873L759.2337550000001,237.35552029609678L760.1317225000001,244.92136652469637L761.0296900000001,246.81264445781707L761.9276575000001,248.8230819940567L762.825625,242.01132895946503L763.7235925,244.11243846416474L764.6215599999999,227.5171025276184L765.5195275,232.72562177181246L766.417495,223.42809505462648L767.3154625,220.87093105316163L768.21343,223.78574509620668L769.1113975,218.9236827135086L770.009365,189.37858543395996L770.9073324999999,222.79637882709503L771.8053,220.93097047805784L772.7032675,224.4322548866272L773.601235,216.32252554893492L774.4992025,221.65465643405915L775.39717,204.13623461723327L776.2951375,230.87641739845276L777.1931050000001,237.2826835155487L778.0910725,250.4575543999672L778.98904,236.6135755777359L779.8870075,224.7646031141281L780.784975,223.6602814435959L781.6829425,252.94592360258105L782.58091,250.63921601772307L783.4788775000001,254.5093143582344L784.376845,239.30862658023833L785.2748125,232.05216994285584L786.17278,244.66734352111817L787.0707475,240.97717194557188L787.9687150000001,229.2723229408264L788.8666825,232.45142941474913L789.7646500000001,232.65204598903657L790.6626175,252.85984786748884L791.5605850000001,237.01496644020082L792.4585525,247.82034834623337L793.35652,255.73481211662295L794.2544875000001,266.28201976418495L795.152455,251.84642347097395L796.0504225000001,257.5885879397392L796.94839,279.37507797628643L797.8463575000001,269.26253516078L798.744325,267.9126664817333L799.6422925,263.0259252548218L800.5402600000001,271.5801847100258L801.4382275,249.30029042959214L802.3361950000001,244.0309589624405L803.2341625,245.01301181316376L804.1321300000001,240.23319947719574L805.0300975000001,250.66705026626585L805.9280650000001,223.26565425395964L806.8260325000001,201.1042887210846L807.724,226.49079966545105L808.6219675000001,214.14544751644135L809.519935,202.96005849838255L810.4179025000001,190.09777879714966L811.3158700000001,212.77282297611237L812.2138375,198.39755787849427L813.111805,209.8371771812439L814.0097724999999,205.76167902946472L814.90774,208.66855781078337L815.8057075,232.5635369539261L816.703675,216.2016401052475L817.6016425,224.2655513048172L818.49961,216.39106349945067L819.3975775,214.76824615001678L820.295545,198.8365071773529L821.1935125,205.13344602584837L822.09148,206.29299459457397L822.9894475,198.01940503120423L823.887415,186.53873505592347L824.7853825,188.64340438842774L825.68335,194.70152835845946L826.5813175000001,187.71005358695984L827.479285,183.5820502281189L828.3772525,178.16061272621155L829.27522,177.12451357841493L830.1731875,165.2603645324707L831.071155,181.05375237464906L831.9691225,187.00047626495362L832.8670900000001,181.94233045578002L833.7650575,184.3044158935547L834.6630250000001,172.92235765457153L835.5609925,169.13306965827942L836.45896,176.4579155445099L837.3569275,172.3648796081543L838.254895,172.02579474449158L839.1528625000001,169.05053572654722L840.05083,171.78229351043703L840.9487975000001,182.48722743988037L841.846765,177.0916189670563L842.7447325,156.39797043800354L843.6427000000001,176.77395615577697L844.5406675,155.91998019218445L845.4386350000001,161.1734208583832L846.3366025,159.99941668510436L847.2345700000001,162.57555141448975L848.1325375,154.6209945201874L849.0305050000001,154.3308189868927L849.9284725000001,157.32861757278442L850.82644,154.9955334663391L851.7244075000001,153.3176649570465L852.622375,155.88423771858217L853.5203425000001,168.09511399269104L854.4183100000001,151.66641855239868L855.3162775000001,150.4085196018219L856.2142450000001,154.9516349315643L857.1122125,139.50426235198975L858.0101800000001,139.03031859397888L858.9081475,123.03480463027952L859.8061150000001,140.2520785331726L860.7040825000001,128.5062689781189L861.60205,105.09233522415161L862.5000175,119.1920831680298L863.397985,122.66465463638306L864.2959525,110.52951707839969L865.1939199999999,118.95480937957763L866.0918875,121.74679584503173L866.989855,109.02881984710694L867.8878225,119.30006761550902L868.78579,105.42310180664066L869.6837575,107.75126523971556L870.581725,101.60438890457152L871.4796925,110.16726179122924L872.37766,101.72367467880252L873.2756275,105.10392494201659L874.173595,91.81451997756955L875.0715625,86.78672733306888L875.96953,101.60222597122191L876.8674975,88.89219875335692L877.7654650000001,85.55792884826661L878.6634325,96.5833013534546L879.5614,87.40310926437377L880.4593675,89.88256988525387L881.357335,88.61036853790284L882.2553025000001,96.02589540481569L883.15327,104.1915636062622L884.0512375000001,90.14688034057616L884.949205,86.14938297271732L885.8471725,90.97074165344242L886.74514,97.74400348663329L887.6431075,95.4945708274841L888.5410750000001,87.22120656967166L889.4390425,90.15252199172977L890.3370100000001,91.8278580665588L891.2349775,92.05860700607303L892.1329450000001,100.61717205047609L893.0309125,97.84164190292358L893.92888,95.52564496994017L894.8268475000001,96.07421894073485L895.724815,90.72461786270145L896.6227825000001,85.33568744659425L897.52075,81.84487524032596L898.4187175000001,86.99880294799806L899.3166850000001,86.40731277465824L900.2146525,77.41462898254395L901.1126200000001,81.7362238883972L902.0105875,79.71227703094479L902.9085550000001,87.7478087425232L903.8065225,74.62127265930172L904.7044900000001,86.88155393600465L905.6024575000001,89.71508674621583L906.5004250000001,100.37294082641603L907.3983925000001,105.89440498352047L908.29636,108.05856399536134L909.1943275000001,118.38374090194702L910.0922950000001,114.99321670532225L910.9902625,95.95141839981079L911.88823,102.28814620971679L912.7861975,104.31346292495726L913.684165,96.69209690093993L914.5821325,88.53116912841796L915.4801,72.68418560028073L916.3780675,83.23012590408325L917.276035,69.36765174865724L918.1740025,85.08675184249881L919.07197,80.64965629577637L919.9699375,68.74629507064816L920.867905,53.72627305984497L921.7658725,73.94144468307496L922.66384,68.50656995773312L923.5618075,67.07645645141605L924.459775,81.76116971969606L925.3577425,60.162964439392056L926.25571,61.13603210449219L927.1536775000001,51.671576499938965L928.051645,52.57052764892575L928.9496125000001,60.219723415374744L929.84758,60.56516189575194L930.7455475,58.65595865249634L931.643515,51.272425174713135L932.5414825,38.68734340667726L933.4394500000001,65.6766240119934L934.3374175,67.57364273071289L935.2353850000001,69.17581758499142L936.1333525,63.04851579666138L937.03132,58.245235633850086L937.9292875000001,62.462595176696766L938.827255,60.590882778167725L939.7252225000001,79.53688116073607L940.62319,47.77752141952516L941.5211575000001,72.03191699981693L942.419125,50.598707485198986L943.3170925000001,50.53679351806642L944.2150600000001,75.70901184082032L945.1130275,39.85509309768673L946.0109950000001,44.2282018661499L946.9089625,58.38833169937135L947.8069300000001,57.05061149597168L948.7048975,48.55821418762207L949.6028650000001,56.0138634681702L950.5008325000001,42.89779958724972L951.3988,35.302532958984386L952.2967675000001,60.985347747802734L953.194735,40.91042432785031L954.0927025000001,48.019139099121105L954.9906700000001,55.36130647659303L955.8886375000001,65.10072498321534L956.7866050000001,65.70018196105957L957.6845725000001,47.57606220245361L958.5825400000001,65.98601360321044L959.4805074999999,58.41295309066771L960.378475,57.86371221542362L961.2764425,58.701236057281506L962.17441,72.852606010437L963.0723775,56.21287136077882L963.970345,54.462607669830334L964.8683125,59.23603935241698L965.76628,33.37725191116334L966.6642475,47.21204051971432L967.562215,68.21325817108158L968.4601825,43.065895557403564L969.35815,53.080078697204556L970.2561175,52.35724439620975L971.154085,43.02005939483644L972.0520525000001,61.45677709579468L972.95002,55.78689966201779L973.8479875,45.390616321563755L974.745955,61.59087896347046L975.6439225,36.35115909576416L976.54189,64.17430458068844L977.4398575,58.31807241439816L978.3378250000001,50.97293100357052L979.2357925,61.65893926620487L980.13376,45.26287708282467L981.0317275,45.96903877258302L981.929695,39.27883358001708L982.8276625000001,48.08377475738524L983.72563,41.90072336196903L984.6235975000001,58.43557376861571L985.521565,69.02745838165282L986.4195325000001,74.87183046340942L987.3175,59.58549728393558" style="fill: none;" fill="none"></path></g></g></g></g></g></g><g transform="translate(40, 378)" clip-path="url(#clip_1)"><clipPath id="clip_1"><rect width="1072" height="22"></rect></clipPath><g><g><line x1="0" y1="0" x2="0" y2="5" style="visibility: inherit;" fill="rgb(0, 0, 0)" stroke="rgb(204, 204, 204)" stroke-width="1px"></line><line x1="89.35" y1="0" x2="89.35" y2="5" style="visibility: inherit;" fill="rgb(0, 0, 0)" stroke="rgb(204, 204, 204)" stroke-width="1px"></line><line x1="178.7" y1="0" x2="178.7" y2="5" style="visibility: inherit;" fill="rgb(0, 0, 0)" stroke="rgb(204, 204, 204)" stroke-width="1px"></line><line x1="268.05" y1="0" x2="268.05" y2="5" style="visibility: inherit;" fill="rgb(0, 0, 0)" stroke="rgb(204, 204, 204)" stroke-width="1px"></line><line x1="357.4" y1="0" x2="357.4" y2="5" style="visibility: inherit;" fill="rgb(0, 0, 0)" stroke="rgb(204, 204, 204)" stroke-width="1px"></line><line x1="446.75000000000006" y1="0" x2="446.75000000000006" y2="5" style="visibility: inherit;" fill="rgb(0, 0, 0)" stroke="rgb(204, 204, 204)" stroke-width="1px"></line><line x1="536.1" y1="0" x2="536.1" y2="5" style="visibility: inherit;" fill="rgb(0, 0, 0)" stroke="rgb(204, 204, 204)" stroke-width="1px"></line><line x1="625.45" y1="0" x2="625.45" y2="5" style="visibility: inherit;" fill="rgb(0, 0, 0)" stroke="rgb(204, 204, 204)" stroke-width="1px"></line><line x1="714.8" y1="0" x2="714.8" y2="5" style="visibility: inherit;" fill="rgb(0, 0, 0)" stroke="rgb(204, 204, 204)" stroke-width="1px"></line><line x1="804.1500000000001" y1="0" x2="804.1500000000001" y2="5" style="visibility: inherit;" fill="rgb(0, 0, 0)" stroke="rgb(204, 204, 204)" stroke-width="1px"></line><line x1="893.5000000000001" y1="0" x2="893.5000000000001" y2="5" style="visibility: inherit;" fill="rgb(0, 0, 0)" stroke="rgb(204, 204, 204)" stroke-width="1px"></line><line x1="982.85" y1="0" x2="982.85" y2="5" style="visibility: inherit;" fill="rgb(0, 0, 0)" stroke="rgb(204, 204, 204)" stroke-width="1px"></line><line x1="1072.2" y1="0" x2="1072.2" y2="5" style="visibility: inherit;" fill="rgb(0, 0, 0)" stroke="rgb(204, 204, 204)" stroke-width="1px"></line></g><g transform="translate(0, 8)"><text x="0" y="0" dx="0em" dy="0.95em" style="text-anchor: middle; visibility: hidden; font-family: &quot;Helvetica Neue&quot;, sans-serif; font-size: 12px; font-weight: 200;" fill="rgb(50, 49, 63)" stroke="none" stroke-width="1px">-500k</text><text x="89.35" y="0" dx="0em" dy="0.95em" style="text-anchor: middle; visibility: inherit; font-family: &quot;Helvetica Neue&quot;, sans-serif; font-size: 12px; font-weight: 200;" fill="rgb(50, 49, 63)" stroke="none" stroke-width="1px">0</text><text x="178.7" y="0" dx="0em" dy="0.95em" style="text-anchor: middle; visibility: inherit; font-family: &quot;Helvetica Neue&quot;, sans-serif; font-size: 12px; font-weight: 200;" fill="rgb(50, 49, 63)" stroke="none" stroke-width="1px">500k</text><text x="268.05" y="0" dx="0em" dy="0.95em" style="text-anchor: middle; visibility: inherit; font-family: &quot;Helvetica Neue&quot;, sans-serif; font-size: 12px; font-weight: 200;" fill="rgb(50, 49, 63)" stroke="none" stroke-width="1px">1M</text><text x="357.4" y="0" dx="0em" dy="0.95em" style="text-anchor: middle; visibility: inherit; font-family: &quot;Helvetica Neue&quot;, sans-serif; font-size: 12px; font-weight: 200;" fill="rgb(50, 49, 63)" stroke="none" stroke-width="1px">1.5M</text><text x="446.75000000000006" y="0" dx="0em" dy="0.95em" style="text-anchor: middle; visibility: inherit; font-family: &quot;Helvetica Neue&quot;, sans-serif; font-size: 12px; font-weight: 200;" fill="rgb(50, 49, 63)" stroke="none" stroke-width="1px">2M</text><text x="536.1" y="0" dx="0em" dy="0.95em" style="text-anchor: middle; visibility: inherit; font-family: &quot;Helvetica Neue&quot;, sans-serif; font-size: 12px; font-weight: 200;" fill="rgb(50, 49, 63)" stroke="none" stroke-width="1px">2.5M</text><text x="625.45" y="0" dx="0em" dy="0.95em" style="text-anchor: middle; visibility: inherit; font-family: &quot;Helvetica Neue&quot;, sans-serif; font-size: 12px; font-weight: 200;" fill="rgb(50, 49, 63)" stroke="none" stroke-width="1px">3M</text><text x="714.8" y="0" dx="0em" dy="0.95em" style="text-anchor: middle; visibility: inherit; font-family: &quot;Helvetica Neue&quot;, sans-serif; font-size: 12px; font-weight: 200;" fill="rgb(50, 49, 63)" stroke="none" stroke-width="1px">3.5M</text><text x="804.1500000000001" y="0" dx="0em" dy="0.95em" style="text-anchor: middle; visibility: inherit; font-family: &quot;Helvetica Neue&quot;, sans-serif; font-size: 12px; font-weight: 200;" fill="rgb(50, 49, 63)" stroke="none" stroke-width="1px">4M</text><text x="893.5000000000001" y="0" dx="0em" dy="0.95em" style="text-anchor: middle; visibility: inherit; font-family: &quot;Helvetica Neue&quot;, sans-serif; font-size: 12px; font-weight: 200;" fill="rgb(50, 49, 63)" stroke="none" stroke-width="1px">4.5M</text><text x="982.85" y="0" dx="0em" dy="0.95em" style="text-anchor: middle; visibility: inherit; font-family: &quot;Helvetica Neue&quot;, sans-serif; font-size: 12px; font-weight: 200;" fill="rgb(50, 49, 63)" stroke="none" stroke-width="1px">5M</text><text x="1072.2" y="0" dx="0em" dy="0.95em" style="text-anchor: middle; visibility: hidden; font-family: &quot;Helvetica Neue&quot;, sans-serif; font-size: 12px; font-weight: 200;" fill="rgb(50, 49, 63)" stroke="none" stroke-width="1px">5.5M</text></g><line x1="0" y1="0" x2="1072.2" y2="0" fill="rgb(0, 0, 0)" stroke="rgb(204, 204, 204)" stroke-width="1px"></line></g></g></g></g></svg>